# xmcd CD database file
#
# Track frame offsets:
#	150
#	12466
#	24124
#	40828
#	54039
#	63264
#	74467
#	90497
#	113386
#	135598
#	146836
#
# Disc length: 2232 seconds
#
# Revision: 0
# Processed by: cddbd v1.5PL3 Copyright (c) Steve Scherf et al.
# Submitted via: CDex 1.40Release
#
DISCID=8508b60b
DTITLE=Peter Radvanyi and Mother in Law Blues Band - Two Faces Of Peter Bonzo Radvanyi
DYEAR=1900
DGENRE=Blues
TTITLE0=Travelling Blues
TTITLE1=Sick And Tired
TTITLE2=Average Man Blues
TTITLE3=the King Of The Blues
TTITLE4=Talking Woman Blues
TTITLE5=Stále prsi
TTITLE6=Looking For Somebody
TTITLE7=Black Water Blues
TTITLE8=Hey Little Baby
TTITLE9=Nemam hlad
TTITLE10=Deep In The Blues
EXTD=ID3G: 0
EXTT0=
EXTT1=
EXTT2=
EXTT3=
EXTT4=
EXTT5=
EXTT6=
EXTT7=
EXTT8=
EXTT9=
EXTT10=
PLAYORDER=
